<?xml version="1.0" encoding="utf-8"?>
<svg version="1.1" xmlns="http://www.w3.org/2000/svg" xmlns:xlink="http://www.w3.org/1999/xlink" x="0px" y="0px" viewBox="0 0 200 200" enable-background="new 0 0 200 200" xml:space="preserve">
 <defs>  <linearGradient id="linear-gradient" y2="59.31259" gradientUnits="userSpaceOnUse" x2="158.92841" y1="177.16941" x1="41.07159">   <stop stop-color="#1a237e" offset="0"/>   <stop stop-color="#7e57c2" offset=".92329"/>  </linearGradient> </defs> <path d="m143.20773 85.44996v-41.85805l-43.20773-24.9459-43.20773 24.9459v41.85805l-36.48425 21.06408v49.8918l43.20773 24.94815 36.24793-20.92952 0.23632 0.13639 0.23632-0.13639 36.24793 20.92952 43.20773-24.94815v-49.8918l-36.48425-21.06408zm-72.9685 42.3977v-26.5989l23.03729 13.30114v26.5989l-23.03729-13.30114zm29.76077-25.21544l-22.80251-13.16489 22.80251-13.16559 22.80251 13.16559-22.80251 13.16489zm6.72348 11.91768l23.03729-13.30114v26.5989l-23.03729 13.30114v-26.5989zm-6.72348-80.37604l29.76077 17.1831v26.59918l-29.76077-17.18226-29.76077 17.18226v-26.59918l29.76077-17.1831zm-36.48425 131.65002l-29.76077-17.1831v-34.3617l23.03729-13.30114v34.63476l29.5236 17.04699-22.80012 13.16419zm102.72927-17.1831l-29.76077 17.1831-22.80012-13.16419 29.5236-17.04699v-34.63476l23.03729 13.30114v34.3617z" fill="url(#linear-gradient)"/>
</svg>