<?xml version="1.0" encoding="utf-8"?>
<svg version="1.1" xmlns="http://www.w3.org/2000/svg" xmlns:xlink="http://www.w3.org/1999/xlink" x="0px" y="0px" viewBox="0 0 1024 1024" enable-background="new 0 0 1024 1024" xml:space="preserve">
<g transform="translate(0 128)">
 <defs>  <linearGradient id="b" y2="384" gradientUnits="userSpaceOnUse" x2="681.75287" y1="384" x1="200.57086">   <stop stop-color="#1a237e" offset="0"/>   <stop stop-color="#7e57c2" offset=".92329"/>  </linearGradient>  <linearGradient id="c" y2="357.17316" xlink:href="#b" x2="809.73888" y1="434.88089" x1="732.03115"/> </defs> <path d="m563.23877 387.3413h-18.84125l9.46366-28.90431 9.37759 28.90431zm-3.20984-41.66235h-12.42157l-18.67691 57.37982 9.37759 3.04397 2.87337-8.87678h25.27346l2.87337 8.87678 9.37759-3.04397-18.67691-57.37982zm-312.72192 68.02976c-5.15986 0-9.29776-2.11589-14.62352-4.64653-5.74677-2.87337-12.67823-6.25382-22.22796-7.18343v-56.1998h-9.88467v65.91387h8.28364c8.11151 0.6792 13.85825 3.55257 19.43442 6.25382 5.74674 2.79356 11.578 5.74674 19.01809 5.74674 11.65783 0 21.29206-7.77031 21.71463-8.11304l-6.25382-7.6905c0 0.08606-7.43384 5.91887-15.46081 5.91887zm18.32167-68.02976v32.62123c0 11.82843-4.56672 17.83184-13.69391 17.83184-12.42154 0-13.77372-12.50763-13.77372-17.83184v-32.62123h-9.89093v32.62123c0 16.81769 9.29776 27.71803 23.66464 27.71803 14.78786 0 23.57855-10.39327 23.57855-27.71803v-32.62123h-9.88464zm48.13682 50.44681c-11.07092 0-19.10418-8.79071-19.10418-20.87733 0-12.1649 8.03325-20.95561 19.10418-20.95561 6.59029 0 12.1649 2.95791 15.63141 8.36818l8.28364-5.3242c-5.23969-8.19757-13.94432-12.93017-23.91505-12.93017-16.48119 0-28.9904 13.26664-28.9904 30.84181 0 17.49689 12.50921 30.76353 28.9904 30.76353 10.56387 0 19.18401-4.64653 24.33761-13.01623l-8.44954-5.1536c-3.38044 5.41027-8.79071 8.28364-15.88808 8.28364zm33.21439-50.45306h9.89093v58.90257h-9.89093v-58.90257zm42.54814 49.02263h-10.14133v-39.13171h10.14133c11.40742 0 18.76145 7.35556 18.76145 18.76297 0 9.37759-4.90319 20.36873-18.76145 20.36873zm0-49.01638h-20.02753v58.90257h20.02753c16.81769 0 28.6539-12.42309 28.6539-30.25493 0-16.90375-11.83621-28.64764-28.6539-28.64764zm33.58059 0v9.88467h17.83336v49.0179h9.89093v-49.0179h17.82711v-9.88467h-45.5514zm76.60608 32.78557h-13.60159v-22.90716h14.19473c8.28364 0 12.08662 6.00341 12.08662 11.66561 0 2.95791-1.01568 5.74521-2.95944 7.6905-2.19417 2.36477-5.57461 3.55105-9.72032 3.55105zm12.85036 10.0568c-0.34273-1.01568-0.76374-1.94376-1.27081-2.79356 2.28649-1.18002 4.05812-2.61671 5.3242-3.96733 3.63711-3.80298 5.66068-8.96284 5.66068-14.53745 0-14.03038-11.32135-21.55028-21.97129-21.55028h-24.08565v58.90257h9.89093v-16.22455h12.6735c2.20042 0 3.72165 1.18475 4.48066 3.55105l0.1706 0.42254c3.03924 6.59029 9.80013 13.68765 20.02753 13.68765v-9.8862c-6.67635 0-9.97073-5.66068-10.90034-7.60444zm94.19529 6.17401h-10.14286v-39.13171h10.14286c11.40742 0 18.76145 7.35556 18.76145 18.76297 0 9.37759-4.90319 20.36873-18.76145 20.36873zm0-49.01638h-20.03379v58.90257h20.03379c16.81769 0 28.64612-12.42309 28.64612-30.25493 0-16.90375-11.82843-28.64764-28.64612-28.64764zm38.64813 0v58.90257h36.3444v-9.8862h-26.45348v-15.21513h19.60652v-9.8862h-19.60652v-14.03038h26.45348v-9.88467h-36.3444z" fill="url(#b)"/> <path d="m799.37361 374.40658v-27.59869l-28.48859-16.44783-28.48859 16.44783v27.59869l-24.05553 13.88839v32.89566l28.48859 16.44932 23.89971-13.79967 0.15582 0.08993 0.15582-0.08993 23.89971 13.79967 28.48859-16.44932v-32.89566l-24.05553-13.88839zm-48.11106 27.9545v-17.53772l15.18941 8.76997v17.53772l-15.18941-8.76997zm19.62247-16.62555l-15.03461-8.68014 15.03461-8.6806 15.03461 8.6806-15.03461 8.68014zm4.43306 7.8578l15.18941-8.76997v17.53772l-15.18941 8.76997v-17.53772zm-4.43306-52.99515l19.62247 11.32951v17.53791l-19.62247-11.32895-19.62247 11.32895v-17.53791l19.62247-11.32951zm-24.05553 86.80215l-19.62247-11.32951v-22.65605l15.18941-8.76997v22.83609l19.4661 11.23977-15.03304 8.67968zm67.73353-11.32951l-19.62247 11.32951-15.03304-8.67968 19.4661-11.23977v-22.83609l15.18941 8.76997v22.65605z" fill="url(#c)"/>
</g>
</svg>